<svg width="36" height="36" viewBox="0 0 36 36" fill="none" xmlns="http://www.w3.org/2000/svg">
<path d="M30.3046 22.5422C30.2343 22.2891 30.389 21.9375 30.5366 21.6844C30.5818 21.609 30.6311 21.5363 30.6843 21.4664C31.9473 19.5897 32.6228 17.3793 32.6249 15.1172C32.646 8.63438 27.1757 3.375 20.4116 3.375C14.5124 3.375 9.59053 7.38984 8.4374 12.7195C8.26489 13.5095 8.17768 14.3157 8.17725 15.1242C8.17725 21.6141 13.4366 27.0141 20.2007 27.0141C21.2765 27.0141 22.7249 26.6906 23.5194 26.4727C24.314 26.2547 25.1015 25.9664 25.3054 25.8891C25.5144 25.8103 25.7359 25.7698 25.9593 25.7695C26.203 25.7686 26.4445 25.8164 26.6694 25.9102L30.6562 27.3234C30.7435 27.3604 30.836 27.3841 30.9304 27.3938C31.0796 27.3938 31.2226 27.3345 31.3281 27.229C31.4336 27.1235 31.4929 26.9804 31.4929 26.8313C31.488 26.7669 31.4762 26.7032 31.4577 26.6414L30.3046 22.5422Z" stroke="black" stroke-width="1.35" stroke-miterlimit="10" stroke-linecap="round"/>
<path d="M4.67301 16.3125C3.75081 17.9692 3.3047 19.8487 3.384 21.7432C3.46329 23.6376 4.06489 25.4732 5.12231 27.0471C5.28473 27.2925 5.37614 27.4823 5.34801 27.6096C5.31989 27.7369 4.50918 31.9598 4.50918 31.9598C4.48968 32.0587 4.49708 32.1609 4.5306 32.2559C4.56412 32.3509 4.62253 32.4351 4.69973 32.4998C4.80274 32.5819 4.93083 32.6261 5.06254 32.625C5.13293 32.6252 5.20259 32.6108 5.26715 32.5828L9.21942 31.0359C9.49143 30.9287 9.79488 30.9338 10.0632 31.05C11.3949 31.5689 12.8672 31.8937 14.3403 31.8937C16.317 31.8958 18.2589 31.3745 19.9688 30.3827" stroke="black" stroke-width="1.35" stroke-miterlimit="10" stroke-linecap="round"/>
</svg>
