<svg width="36" height="36" viewBox="0 0 36 36" fill="none" xmlns="http://www.w3.org/2000/svg">
<path d="M23.6053 23.2566C26.8404 21.0586 29.25 17.6723 29.25 13.5C29.25 10.5163 28.0647 7.65483 25.955 5.54505C23.8452 3.43526 20.9837 2.25 18 2.25C15.0163 2.25 12.1548 3.43526 10.045 5.54505C7.93526 7.65483 6.75 10.5163 6.75 13.5V28.0245C6.75 31.1365 9.26297 33.75 12.375 33.75C15.487 33.75 17.074 31.9261 17.8095 30.9375C18.848 29.5446 20.7422 25.2028 23.6053 23.2566Z" stroke="black" stroke-width="1.35" stroke-linecap="round" stroke-linejoin="round"/>
<path d="M11.25 21.375V12.9375C11.25 9.53437 14.2875 6.75 18 6.75C21.7125 6.75 24.75 9.53437 24.75 12.9375" stroke="black" stroke-width="1.35" stroke-linecap="round" stroke-linejoin="round"/>
<path d="M11.25 16.8047C13.0078 15.5391 16.8623 15.75 16.8623 15.75C18.6905 15.75 19.7571 17.8186 18.6905 19.3078C18.6905 19.3078 16.0987 22.2891 15.7472 23.625" stroke="black" stroke-width="1.35" stroke-linecap="round" stroke-linejoin="round"/>
</svg>
