<svg width="36" height="36" viewBox="0 0 36 36" fill="none" xmlns="http://www.w3.org/2000/svg">
<path d="M11.25 23.625V3.375L13.5 4.5L15.75 3.375L17.9958 4.5L20.2718 3.375L22.5 4.5L24.7352 3.375L26.9803 4.5L29.25 3.375L31.5007 4.5L33.75 3.375V19.125" stroke="black" stroke-width="1.35" stroke-linejoin="round"/>
<path d="M33.75 19.125V27C33.75 28.4918 33.1574 29.9226 32.1025 30.9775C31.0476 32.0324 29.6169 32.625 28.125 32.625M28.125 32.625C26.6332 32.625 25.2025 32.0324 24.1476 30.9775C23.0927 29.9226 22.5 28.4918 22.5 27V23.625H3.37504C3.22694 23.6237 3.08006 23.6519 2.94298 23.708C2.80589 23.764 2.68135 23.8468 2.57662 23.9516C2.47189 24.0563 2.38908 24.1808 2.333 24.3179C2.27693 24.455 2.24873 24.6019 2.25004 24.75C2.25004 29.25 2.72395 32.625 7.87504 32.625H28.125Z" stroke="black" stroke-width="1.35" stroke-linejoin="round"/>
<path d="M15.75 10.125H29.25M20.25 15.75H29.25" stroke="black" stroke-width="1.35" stroke-linecap="round" stroke-linejoin="round"/>
</svg>
